SplineFontDB: 3.2
FontName: Untitled1
FullName: Untitled1
FamilyName: Untitled1
Weight: Regular
Copyright: Copyright (c) 2022, dell
UComments: "2022-7-25: Created with FontForge (http://fontforge.org)"
Version: 001.000
ItalicAngle: 0
UnderlinePosition: -100
UnderlineWidth: 50
Ascent: 800
Descent: 200
InvalidEm: 0
LayerCount: 2
Layer: 0 0 "Back" 1
Layer: 1 0 "Fore" 0
XUID: [1021 289 2098370475 26496]
OS2Version: 0
OS2_WeightWidthSlopeOnly: 0
OS2_UseTypoMetrics: 1
CreationTime: 1658778247
ModificationTime: 1658779526
OS2TypoAscent: 0
OS2TypoAOffset: 1
OS2TypoDescent: 0
OS2TypoDOffset: 1
OS2TypoLinegap: 0
OS2WinAscent: 0
OS2WinAOffset: 1
OS2WinDescent: 0
OS2WinDOffset: 1
HheadAscent: 0
HheadAOffset: 1
HheadDescent: 0
HheadDOffset: 1
OS2Vendor: 'PfEd'
DEI: 91125
Encoding: ISO8859-1
UnicodeInterp: none
NameList: AGL For New Fonts
DisplaySize: -48
AntiAlias: 1
FitToEm: 0
WinInfo: 32 16 4
BeginChars: 256 37

StartChar: A
Encoding: 65 65 0
Width: 1000
Flags: H
LayerCount: 2
Fore
SplineSet
600 400 m 1
 600 600 l 1
 800 600 l 1
 800 400 l 1
 800 200 l 1
 800 0 l 1
 800 -200 l 1
 600 -200 l 1
 600 0 l 1
 600 200 l 1
 400 200 l 1
 200 200 l 1
 200 0 l 1
 200 -200 l 1
 0 -200 l 1
 0 0 l 1
 0 200 l 1
 0 400 l 1
 0 600 l 1
 200 600 l 1
 200 400 l 1
 400 400 l 1
 600 400 l 1
600 600 m 1
 400 600 l 1
 200 600 l 1
 200 800 l 1
 400 800 l 1
 600 800 l 1
 600 600 l 1
EndSplineSet
EndChar

StartChar: B
Encoding: 66 66 1
Width: 1000
Flags: H
LayerCount: 2
Fore
SplineSet
200 0 m 1
 400 0 l 1
 600 0 l 1
 600 -200 l 1
 400 -200 l 1
 200 -200 l 1
 0 -200 l 1
 0 0 l 1
 0 200 l 1
 0 400 l 1
 0 600 l 1
 0 800 l 1
 200 800 l 1
 400 800 l 1
 600 800 l 1
 600 600 l 1
 400 600 l 1
 200 600 l 1
 200 400 l 1
 400 400 l 1
 600 400 l 1
 600 200 l 1
 400 200 l 1
 200 200 l 1
 200 0 l 1
600 0 m 1
 600 200 l 1
 800 200 l 1
 800 0 l 1
 600 0 l 1
600 400 m 1
 600 600 l 1
 800 600 l 1
 800 400 l 1
 600 400 l 1
EndSplineSet
EndChar

StartChar: C
Encoding: 67 67 2
Width: 1000
Flags: H
LayerCount: 2
Fore
SplineSet
800 0 m 1
 800 -200 l 1
 600 -200 l 1
 400 -200 l 1
 200 -200 l 1
 200 0 l 1
 400 0 l 1
 600 0 l 1
 800 0 l 1
200 400 m 1
 200 200 l 1
 200 0 l 1
 0 0 l 1
 0 200 l 1
 0 400 l 1
 0 600 l 1
 200 600 l 1
 200 400 l 1
600 600 m 1
 400 600 l 1
 200 600 l 1
 200 800 l 1
 400 800 l 1
 600 800 l 1
 800 800 l 1
 800 600 l 1
 600 600 l 1
EndSplineSet
EndChar

StartChar: D
Encoding: 68 68 3
Width: 1000
Flags: H
LayerCount: 2
Fore
SplineSet
200 0 m 1
 400 0 l 1
 600 0 l 1
 600 -200 l 1
 400 -200 l 1
 200 -200 l 1
 0 -200 l 1
 0 0 l 1
 0 200 l 1
 0 400 l 1
 0 600 l 1
 0 800 l 1
 200 800 l 1
 400 800 l 1
 600 800 l 1
 600 600 l 1
 400 600 l 1
 200 600 l 1
 200 400 l 1
 200 200 l 1
 200 0 l 1
800 200 m 1
 800 0 l 1
 600 0 l 1
 600 200 l 1
 600 400 l 1
 600 600 l 1
 800 600 l 1
 800 400 l 1
 800 200 l 1
EndSplineSet
EndChar

StartChar: E
Encoding: 69 69 4
Width: 1000
Flags: H
LayerCount: 2
Fore
SplineSet
800 0 m 1
 800 -200 l 1
 600 -200 l 1
 400 -200 l 1
 200 -200 l 1
 0 -200 l 1
 0 0 l 1
 0 200 l 1
 0 400 l 1
 0 600 l 1
 0 800 l 1
 200 800 l 1
 400 800 l 1
 600 800 l 1
 800 800 l 1
 800 600 l 1
 600 600 l 1
 400 600 l 1
 200 600 l 1
 200 400 l 1
 400 400 l 1
 600 400 l 1
 600 200 l 1
 400 200 l 1
 200 200 l 1
 200 0 l 1
 400 0 l 1
 600 0 l 1
 800 0 l 1
EndSplineSet
EndChar

StartChar: F
Encoding: 70 70 5
Width: 1000
Flags: H
LayerCount: 2
Fore
SplineSet
400 600 m 1
 200 600 l 1
 200 400 l 1
 400 400 l 1
 600 400 l 1
 600 200 l 1
 400 200 l 1
 200 200 l 1
 200 0 l 1
 200 -200 l 1
 0 -200 l 1
 0 0 l 1
 0 200 l 1
 0 400 l 1
 0 600 l 1
 0 800 l 1
 200 800 l 1
 400 800 l 1
 600 800 l 1
 800 800 l 1
 800 600 l 1
 600 600 l 1
 400 600 l 1
EndSplineSet
EndChar

StartChar: G
Encoding: 71 71 6
Width: 1000
Flags: H
LayerCount: 2
Fore
SplineSet
800 0 m 1
 800 -200 l 1
 600 -200 l 1
 400 -200 l 1
 200 -200 l 1
 200 0 l 1
 400 0 l 1
 600 0 l 1
 600 200 l 1
 400 200 l 1
 400 400 l 1
 600 400 l 1
 800 400 l 1
 800 200 l 1
 800 0 l 1
200 400 m 1
 200 200 l 1
 200 0 l 1
 0 0 l 1
 0 200 l 1
 0 400 l 1
 0 600 l 1
 200 600 l 1
 200 400 l 1
600 600 m 1
 400 600 l 1
 200 600 l 1
 200 800 l 1
 400 800 l 1
 600 800 l 1
 800 800 l 1
 800 600 l 1
 600 600 l 1
EndSplineSet
EndChar

StartChar: H
Encoding: 72 72 7
Width: 1000
Flags: H
LayerCount: 2
Fore
SplineSet
600 -200 m 1
 600 0 l 1
 600 200 l 1
 400 200 l 1
 200 200 l 1
 200 0 l 1
 200 -200 l 1
 0 -200 l 1
 0 0 l 1
 0 200 l 1
 0 400 l 1
 0 600 l 1
 0 800 l 1
 200 800 l 1
 200 600 l 1
 200 400 l 1
 400 400 l 1
 600 400 l 1
 600 600 l 1
 600 800 l 1
 800 800 l 1
 800 600 l 1
 800 400 l 1
 800 200 l 1
 800 0 l 1
 800 -200 l 1
 600 -200 l 1
EndSplineSet
EndChar

StartChar: I
Encoding: 73 73 8
Width: 1000
Flags: H
LayerCount: 2
Fore
SplineSet
200 800 m 1
 400 800 l 1
 600 800 l 1
 600 600 l 1
 400 600 l 1
 400 400 l 1
 400 200 l 1
 400 0 l 1
 600 0 l 1
 600 -200 l 1
 400 -200 l 1
 200 -200 l 1
 0 -200 l 1
 0 0 l 1
 200 0 l 1
 200 200 l 1
 200 400 l 1
 200 600 l 1
 0 600 l 1
 0 800 l 1
 200 800 l 1
EndSplineSet
EndChar

StartChar: J
Encoding: 74 74 9
Width: 1000
Flags: H
LayerCount: 2
Fore
SplineSet
200 0 m 1
 400 0 l 1
 600 0 l 1
 600 -200 l 1
 400 -200 l 1
 200 -200 l 1
 200 0 l 1
0 0 m 1
 0 200 l 1
 200 200 l 1
 200 0 l 1
 0 0 l 1
400 800 m 1
 600 800 l 1
 800 800 l 1
 800 600 l 1
 800 400 l 1
 800 200 l 1
 800 0 l 1
 600 0 l 1
 600 200 l 1
 600 400 l 1
 600 600 l 1
 400 600 l 1
 200 600 l 1
 0 600 l 1
 0 800 l 1
 200 800 l 1
 400 800 l 1
EndSplineSet
EndChar

StartChar: K
Encoding: 75 75 10
Width: 1000
Flags: H
LayerCount: 2
Fore
SplineSet
600 -200 m 1
 600 0 l 1
 800 0 l 1
 800 -200 l 1
 600 -200 l 1
400 0 m 1
 400 200 l 1
 600 200 l 1
 600 0 l 1
 400 0 l 1
400 400 m 1
 400 600 l 1
 600 600 l 1
 600 400 l 1
 400 400 l 1
200 600 m 1
 200 400 l 1
 400 400 l 1
 400 200 l 1
 200 200 l 1
 200 0 l 1
 200 -200 l 1
 0 -200 l 1
 0 0 l 1
 0 200 l 1
 0 400 l 1
 0 600 l 1
 0 800 l 1
 200 800 l 1
 200 600 l 1
600 600 m 1
 600 800 l 1
 800 800 l 1
 800 600 l 1
 600 600 l 1
EndSplineSet
EndChar

StartChar: L
Encoding: 76 76 11
Width: 1000
Flags: H
LayerCount: 2
Fore
SplineSet
400 0 m 1
 600 0 l 1
 800 0 l 1
 800 -200 l 1
 600 -200 l 1
 400 -200 l 1
 200 -200 l 1
 0 -200 l 1
 0 0 l 1
 0 200 l 1
 0 400 l 1
 0 600 l 1
 0 800 l 1
 200 800 l 1
 200 600 l 1
 200 400 l 1
 200 200 l 1
 200 0 l 1
 400 0 l 1
EndSplineSet
EndChar

StartChar: M
Encoding: 77 77 12
Width: 1000
Flags: H
LayerCount: 2
Fore
SplineSet
400 200 m 1
 400 400 l 1
 600 400 l 1
 600 200 l 1
 400 200 l 1
200 600 m 1
 400 600 l 1
 400 400 l 1
 200 400 l 1
 200 200 l 1
 200 0 l 1
 200 -200 l 1
 0 -200 l 1
 0 0 l 1
 0 200 l 1
 0 400 l 1
 0 600 l 1
 0 800 l 1
 200 800 l 1
 200 600 l 1
800 600 m 1
 800 800 l 1
 1000 800 l 1
 1000 600 l 1
 1000 400 l 1
 1000 200 l 1
 1000 0 l 1
 1000 -200 l 1
 800 -200 l 1
 800 0 l 1
 800 200 l 1
 800 400 l 1
 600 400 l 1
 600 600 l 1
 800 600 l 1
EndSplineSet
EndChar

StartChar: N
Encoding: 78 78 13
Width: 1000
Flags: H
LayerCount: 2
Fore
SplineSet
200 600 m 1
 400 600 l 1
 400 400 l 1
 200 400 l 1
 200 200 l 1
 200 0 l 1
 200 -200 l 1
 0 -200 l 1
 0 0 l 1
 0 200 l 1
 0 400 l 1
 0 600 l 1
 0 800 l 1
 200 800 l 1
 200 600 l 1
600 600 m 1
 600 800 l 1
 800 800 l 1
 800 600 l 1
 800 400 l 1
 800 200 l 1
 800 0 l 1
 800 -200 l 1
 600 -200 l 1
 600 0 l 1
 600 200 l 1
 400 200 l 1
 400 400 l 1
 600 400 l 1
 600 600 l 1
EndSplineSet
EndChar

StartChar: O
Encoding: 79 79 14
Width: 1000
Flags: H
LayerCount: 2
Fore
SplineSet
200 0 m 1
 400 0 l 1
 600 0 l 1
 600 -200 l 1
 400 -200 l 1
 200 -200 l 1
 200 0 l 1
200 400 m 1
 200 200 l 1
 200 0 l 1
 0 0 l 1
 0 200 l 1
 0 400 l 1
 0 600 l 1
 200 600 l 1
 200 400 l 1
600 400 m 1
 600 600 l 1
 800 600 l 1
 800 400 l 1
 800 200 l 1
 800 0 l 1
 600 0 l 1
 600 200 l 1
 600 400 l 1
600 600 m 1
 400 600 l 1
 200 600 l 1
 200 800 l 1
 400 800 l 1
 600 800 l 1
 600 600 l 1
EndSplineSet
EndChar

StartChar: P
Encoding: 80 80 15
Width: 1000
Flags: H
LayerCount: 2
Fore
SplineSet
200 400 m 1
 400 400 l 1
 600 400 l 1
 600 200 l 1
 400 200 l 1
 200 200 l 1
 200 0 l 1
 200 -200 l 1
 0 -200 l 1
 0 0 l 1
 0 200 l 1
 0 400 l 1
 0 600 l 1
 0 800 l 1
 200 800 l 1
 400 800 l 1
 600 800 l 1
 600 600 l 1
 400 600 l 1
 200 600 l 1
 200 400 l 1
600 400 m 1
 600 600 l 1
 800 600 l 1
 800 400 l 1
 600 400 l 1
EndSplineSet
EndChar

StartChar: Q
Encoding: 81 81 16
Width: 1000
Flags: H
LayerCount: 2
Fore
SplineSet
500 -200 m 1
 500 -33.3330078125 l 1
 666.666992188 -33.3330078125 l 1
 666.666992188 -200 l 1
 500 -200 l 1
166.666992188 133.333007812 m 1
 333.333007812 133.333007812 l 1
 500 133.333007812 l 1
 500 -33.3330078125 l 1
 333.333007812 -33.3330078125 l 1
 166.666992188 -33.3330078125 l 1
 166.666992188 133.333007812 l 1
166.666992188 466.666992188 m 1
 166.666992188 300 l 1
 166.666992188 133.333007812 l 1
 0 133.333007812 l 1
 0 300 l 1
 0 466.666992188 l 1
 0 633.333007812 l 1
 166.666992188 633.333007812 l 1
 166.666992188 466.666992188 l 1
500 466.666992188 m 1
 500 633.333007812 l 1
 666.666992188 633.333007812 l 1
 666.666992188 466.666992188 l 1
 666.666992188 300 l 1
 666.666992188 133.333007812 l 1
 500 133.333007812 l 1
 500 300 l 1
 500 466.666992188 l 1
500 633.333007812 m 1
 333.333007812 633.333007812 l 1
 166.666992188 633.333007812 l 1
 166.666992188 800 l 1
 333.333007812 800 l 1
 500 800 l 1
 500 633.333007812 l 1
EndSplineSet
EndChar

StartChar: R
Encoding: 82 82 17
Width: 1000
Flags: H
LayerCount: 2
Fore
SplineSet
600 -200 m 1
 600 0 l 1
 800 0 l 1
 800 -200 l 1
 600 -200 l 1
200 400 m 1
 400 400 l 1
 600 400 l 1
 600 200 l 1
 600 0 l 1
 400 0 l 1
 400 200 l 1
 200 200 l 1
 200 0 l 1
 200 -200 l 1
 0 -200 l 1
 0 0 l 1
 0 200 l 1
 0 400 l 1
 0 600 l 1
 0 800 l 1
 200 800 l 1
 400 800 l 1
 600 800 l 1
 600 600 l 1
 400 600 l 1
 200 600 l 1
 200 400 l 1
600 400 m 1
 600 600 l 1
 800 600 l 1
 800 400 l 1
 600 400 l 1
EndSplineSet
EndChar

StartChar: S
Encoding: 83 83 18
Width: 1000
Flags: H
LayerCount: 2
Fore
SplineSet
200 0 m 1
 400 0 l 1
 600 0 l 1
 600 -200 l 1
 400 -200 l 1
 200 -200 l 1
 0 -200 l 1
 0 0 l 1
 200 0 l 1
600 0 m 1
 600 200 l 1
 800 200 l 1
 800 0 l 1
 600 0 l 1
400 200 m 1
 200 200 l 1
 200 400 l 1
 400 400 l 1
 600 400 l 1
 600 200 l 1
 400 200 l 1
0 400 m 1
 0 600 l 1
 200 600 l 1
 200 400 l 1
 0 400 l 1
400 800 m 1
 600 800 l 1
 800 800 l 1
 800 600 l 1
 600 600 l 1
 400 600 l 1
 200 600 l 1
 200 800 l 1
 400 800 l 1
EndSplineSet
EndChar

StartChar: T
Encoding: 84 84 19
Width: 1000
Flags: H
LayerCount: 2
Fore
SplineSet
200 800 m 1
 400 800 l 1
 600 800 l 1
 600 600 l 1
 400 600 l 1
 400 400 l 1
 400 200 l 1
 400 0 l 1
 400 -200 l 1
 200 -200 l 1
 200 0 l 1
 200 200 l 1
 200 400 l 1
 200 600 l 1
 0 600 l 1
 0 800 l 1
 200 800 l 1
EndSplineSet
EndChar

StartChar: U
Encoding: 85 85 20
Width: 1000
Flags: H
LayerCount: 2
Fore
SplineSet
200 0 m 1
 400 0 l 1
 600 0 l 1
 600 -200 l 1
 400 -200 l 1
 200 -200 l 1
 200 0 l 1
200 400 m 1
 200 200 l 1
 200 0 l 1
 0 0 l 1
 0 200 l 1
 0 400 l 1
 0 600 l 1
 0 800 l 1
 200 800 l 1
 200 600 l 1
 200 400 l 1
600 600 m 1
 600 800 l 1
 800 800 l 1
 800 600 l 1
 800 400 l 1
 800 200 l 1
 800 0 l 1
 600 0 l 1
 600 200 l 1
 600 400 l 1
 600 600 l 1
EndSplineSet
EndChar

StartChar: V
Encoding: 86 86 21
Width: 1000
Flags: H
LayerCount: 2
Fore
SplineSet
200 -200 m 1
 200 0 l 1
 400 0 l 1
 400 -200 l 1
 200 -200 l 1
200 400 m 1
 200 200 l 1
 200 0 l 1
 0 0 l 1
 0 200 l 1
 0 400 l 1
 0 600 l 1
 0 800 l 1
 200 800 l 1
 200 600 l 1
 200 400 l 1
400 600 m 1
 400 800 l 1
 600 800 l 1
 600 600 l 1
 600 400 l 1
 600 200 l 1
 600 0 l 1
 400 0 l 1
 400 200 l 1
 400 400 l 1
 400 600 l 1
EndSplineSet
EndChar

StartChar: W
Encoding: 87 87 22
Width: 1000
Flags: H
LayerCount: 2
Fore
SplineSet
600 -200 m 1
 600 0 l 1
 800 0 l 1
 800 -200 l 1
 600 -200 l 1
200 -200 m 1
 200 0 l 1
 400 0 l 1
 400 -200 l 1
 200 -200 l 1
600 400 m 1
 600 200 l 1
 600 0 l 1
 400 0 l 1
 400 200 l 1
 400 400 l 1
 400 600 l 1
 600 600 l 1
 600 400 l 1
200 400 m 1
 200 200 l 1
 200 0 l 1
 0 0 l 1
 0 200 l 1
 0 400 l 1
 0 600 l 1
 0 800 l 1
 200 800 l 1
 200 600 l 1
 200 400 l 1
800 600 m 1
 800 800 l 1
 1000 800 l 1
 1000 600 l 1
 1000 400 l 1
 1000 200 l 1
 1000 0 l 1
 800 0 l 1
 800 200 l 1
 800 400 l 1
 800 600 l 1
EndSplineSet
EndChar

StartChar: X
Encoding: 88 88 23
Width: 1000
Flags: H
LayerCount: 2
Fore
SplineSet
600 -200 m 1
 600 0 l 1
 600 200 l 1
 800 200 l 1
 800 0 l 1
 800 -200 l 1
 600 -200 l 1
0 0 m 1
 0 200 l 1
 200 200 l 1
 200 0 l 1
 200 -200 l 1
 0 -200 l 1
 0 0 l 1
200 400 m 1
 400 400 l 1
 600 400 l 1
 600 200 l 1
 400 200 l 1
 200 200 l 1
 200 400 l 1
600 600 m 1
 600 800 l 1
 800 800 l 1
 800 600 l 1
 800 400 l 1
 600 400 l 1
 600 600 l 1
200 800 m 1
 200 600 l 1
 200 400 l 1
 0 400 l 1
 0 600 l 1
 0 800 l 1
 200 800 l 1
EndSplineSet
EndChar

StartChar: Y
Encoding: 89 89 24
Width: 1000
Flags: H
LayerCount: 2
Fore
SplineSet
200 200 m 1
 200 400 l 1
 400 400 l 1
 400 200 l 1
 400 0 l 1
 400 -200 l 1
 200 -200 l 1
 200 0 l 1
 200 200 l 1
400 600 m 1
 400 800 l 1
 600 800 l 1
 600 600 l 1
 600 400 l 1
 400 400 l 1
 400 600 l 1
200 800 m 1
 200 600 l 1
 200 400 l 1
 0 400 l 1
 0 600 l 1
 0 800 l 1
 200 800 l 1
EndSplineSet
EndChar

StartChar: Z
Encoding: 90 90 25
Width: 1000
Flags: H
LayerCount: 2
Fore
SplineSet
0 0 m 1
 0 200 l 1
 200 200 l 1
 200 0 l 1
 400 0 l 1
 600 0 l 1
 800 0 l 1
 800 -200 l 1
 600 -200 l 1
 400 -200 l 1
 200 -200 l 1
 0 -200 l 1
 0 0 l 1
200 400 m 1
 400 400 l 1
 600 400 l 1
 600 200 l 1
 400 200 l 1
 200 200 l 1
 200 400 l 1
600 800 m 1
 800 800 l 1
 800 600 l 1
 800 400 l 1
 600 400 l 1
 600 600 l 1
 400 600 l 1
 200 600 l 1
 0 600 l 1
 0 800 l 1
 200 800 l 1
 400 800 l 1
 600 800 l 1
EndSplineSet
EndChar

StartChar: zero
Encoding: 48 48 26
Width: 1000
Flags: H
LayerCount: 2
Fore
SplineSet
200 0 m 1
 400 0 l 1
 600 0 l 1
 600 -200 l 1
 400 -200 l 1
 200 -200 l 1
 200 0 l 1
200 400 m 1
 200 200 l 1
 200 0 l 1
 0 0 l 1
 0 200 l 1
 0 400 l 1
 0 600 l 1
 200 600 l 1
 200 400 l 1
600 400 m 1
 600 600 l 1
 800 600 l 1
 800 400 l 1
 800 200 l 1
 800 0 l 1
 600 0 l 1
 600 200 l 1
 600 400 l 1
600 600 m 1
 400 600 l 1
 200 600 l 1
 200 800 l 1
 400 800 l 1
 600 800 l 1
 600 600 l 1
EndSplineSet
EndChar

StartChar: one
Encoding: 49 49 27
Width: 1000
Flags: H
LayerCount: 2
Fore
SplineSet
400 200 m 1
 400 0 l 1
 600 0 l 1
 600 -200 l 1
 400 -200 l 1
 200 -200 l 1
 0 -200 l 1
 0 0 l 1
 200 0 l 1
 200 200 l 1
 200 400 l 1
 0 400 l 1
 0 600 l 1
 200 600 l 1
 200 800 l 1
 400 800 l 1
 400 600 l 1
 400 400 l 1
 400 200 l 1
EndSplineSet
EndChar

StartChar: two
Encoding: 50 50 28
Width: 1000
Flags: H
LayerCount: 2
Fore
SplineSet
0 0 m 1
 0 200 l 1
 200 200 l 1
 200 0 l 1
 400 0 l 1
 600 0 l 1
 800 0 l 1
 800 -200 l 1
 600 -200 l 1
 400 -200 l 1
 200 -200 l 1
 0 -200 l 1
 0 0 l 1
200 400 m 1
 400 400 l 1
 600 400 l 1
 600 200 l 1
 400 200 l 1
 200 200 l 1
 200 400 l 1
600 400 m 1
 600 600 l 1
 800 600 l 1
 800 400 l 1
 600 400 l 1
400 800 m 1
 600 800 l 1
 600 600 l 1
 400 600 l 1
 200 600 l 1
 0 600 l 1
 0 800 l 1
 200 800 l 1
 400 800 l 1
EndSplineSet
EndChar

StartChar: three
Encoding: 51 51 29
Width: 1000
Flags: H
LayerCount: 2
Fore
SplineSet
200 0 m 1
 400 0 l 1
 600 0 l 1
 600 -200 l 1
 400 -200 l 1
 200 -200 l 1
 0 -200 l 1
 0 0 l 1
 200 0 l 1
600 0 m 1
 600 200 l 1
 800 200 l 1
 800 0 l 1
 600 0 l 1
200 400 m 1
 400 400 l 1
 600 400 l 1
 600 200 l 1
 400 200 l 1
 200 200 l 1
 200 400 l 1
600 400 m 1
 600 600 l 1
 800 600 l 1
 800 400 l 1
 600 400 l 1
400 800 m 1
 600 800 l 1
 600 600 l 1
 400 600 l 1
 200 600 l 1
 0 600 l 1
 0 800 l 1
 200 800 l 1
 400 800 l 1
EndSplineSet
EndChar

StartChar: four
Encoding: 52 52 30
Width: 1000
Flags: H
LayerCount: 2
Fore
SplineSet
600 600 m 1
 600 800 l 1
 800 800 l 1
 800 600 l 1
 800 400 l 1
 800 200 l 1
 800 0 l 1
 800 -200 l 1
 600 -200 l 1
 600 0 l 1
 600 200 l 1
 400 200 l 1
 200 200 l 1
 0 200 l 1
 0 400 l 1
 0 600 l 1
 0 800 l 1
 200 800 l 1
 200 600 l 1
 200 400 l 1
 400 400 l 1
 600 400 l 1
 600 600 l 1
EndSplineSet
EndChar

StartChar: five
Encoding: 53 53 31
Width: 1000
Flags: H
LayerCount: 2
Fore
SplineSet
200 0 m 1
 400 0 l 1
 600 0 l 1
 600 -200 l 1
 400 -200 l 1
 200 -200 l 1
 0 -200 l 1
 0 0 l 1
 200 0 l 1
600 0 m 1
 600 200 l 1
 800 200 l 1
 800 0 l 1
 600 0 l 1
400 800 m 1
 600 800 l 1
 800 800 l 1
 800 600 l 1
 600 600 l 1
 400 600 l 1
 200 600 l 1
 200 400 l 1
 400 400 l 1
 600 400 l 1
 600 200 l 1
 400 200 l 1
 200 200 l 1
 0 200 l 1
 0 400 l 1
 0 600 l 1
 0 800 l 1
 200 800 l 1
 400 800 l 1
EndSplineSet
EndChar

StartChar: six
Encoding: 54 54 32
Width: 1000
Flags: H
LayerCount: 2
Fore
SplineSet
200 0 m 1
 400 0 l 1
 600 0 l 1
 600 -200 l 1
 400 -200 l 1
 200 -200 l 1
 200 0 l 1
600 0 m 1
 600 200 l 1
 800 200 l 1
 800 0 l 1
 600 0 l 1
400 200 m 1
 200 200 l 1
 200 0 l 1
 0 0 l 1
 0 200 l 1
 0 400 l 1
 0 600 l 1
 200 600 l 1
 200 400 l 1
 400 400 l 1
 600 400 l 1
 600 200 l 1
 400 200 l 1
600 600 m 1
 400 600 l 1
 200 600 l 1
 200 800 l 1
 400 800 l 1
 600 800 l 1
 600 600 l 1
EndSplineSet
EndChar

StartChar: seven
Encoding: 55 55 33
Width: 1000
Flags: H
LayerCount: 2
Fore
SplineSet
200 0 m 1
 200 200 l 1
 400 200 l 1
 400 0 l 1
 400 -200 l 1
 200 -200 l 1
 200 0 l 1
400 200 m 1
 400 400 l 1
 600 400 l 1
 600 200 l 1
 400 200 l 1
400 800 m 1
 600 800 l 1
 800 800 l 1
 800 600 l 1
 800 400 l 1
 600 400 l 1
 600 600 l 1
 400 600 l 1
 200 600 l 1
 0 600 l 1
 0 800 l 1
 200 800 l 1
 400 800 l 1
EndSplineSet
EndChar

StartChar: eight
Encoding: 56 56 34
Width: 1000
Flags: H
LayerCount: 2
Fore
SplineSet
200 0 m 1
 400 0 l 1
 600 0 l 1
 600 -200 l 1
 400 -200 l 1
 200 -200 l 1
 200 0 l 1
600 0 m 1
 600 200 l 1
 800 200 l 1
 800 0 l 1
 600 0 l 1
0 0 m 1
 0 200 l 1
 200 200 l 1
 200 0 l 1
 0 0 l 1
200 400 m 1
 400 400 l 1
 600 400 l 1
 600 200 l 1
 400 200 l 1
 200 200 l 1
 200 400 l 1
600 400 m 1
 600 600 l 1
 800 600 l 1
 800 400 l 1
 600 400 l 1
0 400 m 1
 0 600 l 1
 200 600 l 1
 200 400 l 1
 0 400 l 1
600 600 m 1
 400 600 l 1
 200 600 l 1
 200 800 l 1
 400 800 l 1
 600 800 l 1
 600 600 l 1
EndSplineSet
EndChar

StartChar: nine
Encoding: 57 57 35
Width: 1000
Flags: H
LayerCount: 2
Fore
SplineSet
200 0 m 1
 400 0 l 1
 600 0 l 1
 600 -200 l 1
 400 -200 l 1
 200 -200 l 1
 200 0 l 1
600 400 m 1
 600 600 l 1
 800 600 l 1
 800 400 l 1
 800 200 l 1
 800 0 l 1
 600 0 l 1
 600 200 l 1
 400 200 l 1
 200 200 l 1
 200 400 l 1
 400 400 l 1
 600 400 l 1
0 400 m 1
 0 600 l 1
 200 600 l 1
 200 400 l 1
 0 400 l 1
600 600 m 1
 400 600 l 1
 200 600 l 1
 200 800 l 1
 400 800 l 1
 600 800 l 1
 600 600 l 1
EndSplineSet
EndChar

StartChar: period
Encoding: 46 46 36
Width: 1000
Flags: H
LayerCount: 2
Fore
SplineSet
0 -200 m 1
 0 800 l 1
 1000 800 l 1
 1000 -200 l 1
 0 -200 l 1
EndSplineSet
EndChar
